<?xml version="1.0" encoding="UTF-8"?><svg id="Layer_2" xmlns="http://www.w3.org/2000/svg" viewBox="0 0 1983.63 1983.63"><g id="Layer_1-2"><rect x="0" y="0" width="1983.63" height="1983.63" rx="991.82" ry="991.82" style="fill:#fff; stroke-width:0px;"/><path id="r" d="M1600.31,591.11c-1.31-295.15-295.15-295.15-295.15-295.15h-298.37l-1.65,1391.7h593.86v-236.89h-29.61c-1.65,235.24-266.5,207.28-266.5,207.28h-266.5v-56.83c1.65-176.77,269.28-176.77,269.28-176.77l294.63-3.29c0-386.58-296.28-384.94-296.28-384.94h-267.63v-29.61h562.6s1.44-385.27,1.31-415.51h.01ZM1214.07,532.85s77.32-1.65,126.67,47.71c49.35,49.35,51,129.96,51,129.96,0,0-80.61,11.52-129.96-41.13-50.92-54.31-47.71-136.54-47.71-136.54h0Z" style="fill:#00218f; stroke-width:0px;"/><path d="M383.32,295.97v33.11c0,194.31,157.52,351.83,351.83,351.83h33.44c97.94,0,177.34,79.4,177.34,177.34v799.82c-16.35,0-29.61-13.26-29.61-29.61v-405.01c0-103.39-83.81-187.21-187.21-187.21h-345.79v651.44h592.21V295.97H383.32ZM945.92,651.3h-207.28c-179.89,0-325.72-145.83-325.72-325.72h207.28c179.89,0,325.72,145.83,325.72,325.72h0Z" style="fill:#00218f; stroke-width:0px;"/></g></svg>