<?xml version="1.0" encoding="UTF-8"?><svg id="Layer_1" xmlns="http://www.w3.org/2000/svg" viewBox="0 0 747.22 1287"><path id="f" d="M108,855H0v-423h180v72h-9.03s0-63-81.74-63.5c-90.76-.56-81.24,63-81.24,63v72.5h172v72h-9.19c-.5-62.5-63.82-62.5-80.82-63.06-.44,0-.89.06-1.33.06H7.98v198s.5,63.5,100,63.5v8.5h.02Z" style="stroke-width:0px;"/><path id="o" d="M279,432h-90v351s-.51,72,90,72h90l.5-350.5s-.5-72.5-90.5-72.5ZM359,737c-.5,53.5-45,45-45,45h-117s.5-170.5,0-225,54-54,54-54h108s.5,180.5,0,234Z" style="stroke-width:0px;"/><path id="r" d="M558.4,521.71c-.4-89.71-89.71-89.71-89.71-89.71h-90.69l-.5,423h180.5v-72h-9c-.5,71.5-81,63-81,63h-81v-17.27c.5-53.73,81.85-53.73,81.85-53.73l89.55-1c0-117.5-90.05-117-90.05-117h-81.34v-9h171s.44-117.1.4-126.29h-.01ZM441,504s23.5-.5,38.5,14.5,15.5,39.5,15.5,39.5c0,0-24.5,3.5-39.5-12.5-15.48-16.51-14.5-41.5-14.5-41.5Z" style="stroke-width:0px;"/><path id="n" d="M747,504c-.5-72.5-90-72-90-72h-90v423h9v-297.17c0-17.19,6.04-29.01,14.8-37.12,9.84-10.39,27.89-16.71,43.33-16.71h103.87v279c0,62.5-81,63-81,63v9h90s.5-278.5,0-351Z" style="stroke-width:0px;"/><path id="purification" d="M0,864v423h180v-423H0ZM90,1278c-44.74,0-81-36.26-81-81s36.26-81,81-81,81,36.26,81,81-36.26,81-81,81ZM171,1044s.11,63.47-80.89,63.78c-58.95.22-81.11,50.02-81.11,50.02v-217.1c0-37.39,30.31-67.7,67.7-67.7h94.3v171Z" style="stroke-width:0px;"/><path id="inversion" d="M378.15,864h180v423h-180v-99h9v41c0,27.06,21.94,49,49,49h41v-216h-5.35c-16.93,0-30.65,13.72-30.65,30.65v176.35h-4.78c-22.22,0-40.22-18.01-40.22-40.22v-175.77h106.92c25.45,0,46.08-20.63,46.08-46.08v-133.93l-110.98.07c-16.95.01-25.8,20.16-14.34,32.65l102.82,112.05h0c-1.4,2.72-3.58,4.96-6.25,6.44l-.5.28-102.18-111.67c-10.84-11.84-30.57-4.18-30.57,11.88v254.31h-9v-315.01Z" style="stroke-width:0px;"/><path id="persona" d="M189,864h180v216h-127c-24.3,0-44,19.7-44,44v46h171v9h-122.5c-26.79,0-48.5,21.71-48.5,48.5v50.5h123.05c21.51,0,38.95-17.44,38.95-38.95v-51.05h9v99h-180v-216h130.55c22.34,0,40.45-18.11,40.45-40.45v-157.55h-116.8c-24.96,0-45.2,20.24-45.2,45.2v90.3c0,24.58,19.92,44.5,44.5,44.5h45.5v9h-99v-198Z" style="stroke-width:0px;"/><path id="despair" d="M378.75,0v10.06c0,59.06,47.88,106.94,106.94,106.94h10.16c29.77,0,53.9,24.13,53.9,53.9v243.1c-4.97,0-9-4.03-9-9v-123.1c0-31.42-25.47-56.9-56.9-56.9h-105.1v198h180V0h-180ZM549.75,108h-63c-54.68,0-99-44.32-99-99h63c54.68,0,99,44.32,99,99h0Z" style="stroke-width:0px;"/><path id="vacua" d="M190.2,0v423h180V0h-180ZM361.2,264.5c0,82.57-66.93,149.5-149.5,149.5h-12.5V155c0-80.63,65.37-146,146-146h16v255.5Z" style="stroke-width:0px;"/><path id="trickster" d="M0,0v423h180V0H0ZM171,414H9s0-90,63-153c40.75-40.75,99-54,99-54v207ZM101.47,226C31.61,263.69,9,351,9,351V9h81v163.13c0,20.24-9.46,39.31-25.57,51.55l-14.48,11.01.56,21s7.66-10.05,23.29-21.94c14.25-10.84,25.2-16.76,25.2-16.76V9h72v99s9.79,75.22-69.53,118h0Z" style="stroke-width:0px;"/><path id="disobedience" d="M567,864v423h180v-423h-180ZM576,1146.67v-273.67h153l-108.91,281.89c-9.11,23.57-44.09,17.05-44.09-8.22ZM738,1278h-153l50.79-131.46c21.11-54.64,102.21-39.52,102.21,19.06v112.41Z" style="stroke-width:0px;"/><path id="distillation" d="M567,0v423h180V0h-180ZM738,414h-162l-.9-225s11.25,27,40.65,26.4c51.9-1.06,122.25,33.59,122.25,114.26v84.34ZM618.43,209.07c-23.44-.21-42.43-19-42.43-42.43V9h0c89.51,0,162.11,72.49,162.26,162l.19,121.95c-21.67-61.86-75.56-83.47-120.02-83.88Z" style="stroke-width:0px;"/></svg>