<?xml version="1.0" encoding="utf-8"?>
<svg version="1.1" id="logo_daksh" xmlns="http://www.w3.org/2000/svg" x="0px" y="0px"
	 viewBox="0 0 936 423" xml:space="preserve">
<style type="text/css">
	.lt {
		fill: var(--color-logo-fill, #00218F);
		transition: fill 0.3s ease;
	}
</style>
<!-- D -->
<path class="lt" id="letter-d" d="M135,0 C160,0 180,20 180,45 V378 C180,403 160,423 135,423 H0 V0 H135 Z M135,72 H53 C29.8,72 8,93.8 8,117 V306 C8,329.2 29.8,351 53,351 H135 C155,351 171,335 171,306 V117 C171,88 155,72 135,72 Z"/>
<!-- A -->
<path class="lt" id="letter-a" d="M189,0 H369 V423 H361 V317 C361,294 339,272 316,272 H242 C219,272 197,294 197,317 V423 H189 Z M242,72 C219,72 197,94 197,117 V155 C197,178 219,200 242,200 H316 C339,200 361,178 361,155 V117 C361,94 339,72 316,72 H242 Z"/>
<!-- K -->
<path class="lt" id="letter-k" d="M378,0 H386 V150 C386,170 395,185 410,170 L510,0 H558 L445,190 C435,200 435,215 445,225 L558,423 H510 L410,240 C395,225 386,240 386,260 V423 H378 Z"/>
<!-- S -->
<path class="lt" id="letter-s" d="M747,0 H567 V190 C567,215 589,247 620,247 H739 V351 C739,351 567,351 567,351 V423 H747 V230 C747,205 725,173 694,173 H575 V117 C575,92 597,72 620,72 H747 Z"/>
<!-- H -->
<path class="lt" id="letter-h" d="M756,0 H764 V130 C764,153 786,175 809,175 H883 C906,175 928,153 928,130 V0 H936 V423 H928 V292 C928,269 906,247 883,247 H809 C786,247 764,269 764,292 V423 H756 Z"/>
</svg>
