<?xml version="1.0" encoding="utf-8"?>
<!-- Generator: Adobe Illustrator 28.2.0, SVG Export Plug-In . SVG Version: 6.00 Build 0)  -->
<svg version="1.1" id="logo_full" xmlns="http://www.w3.org/2000/svg" xmlns:xlink="http://www.w3.org/1999/xlink" x="0px" y="0px"
	 viewBox="0 0 747.2 423" style="enable-background:new 0 0 747.2 423;" xml:space="preserve">
<style type="text/css">
	.st0{fill:#00218F;}
</style>
<path id="f_00000161607722744941334830000017765295718660827796_" class="st0" d="M108,423.1H0V-0.1H180v72h-9
	c0-2.5-0.1-13.9-0.1-17.9c0-24.7-20.1-45.6-45.5-45.6c-5.2,0-67.5,0-71.9,0C26.9,8.5,8,30,8,53.8V144H180v72h-9c0-7.6,0-11.5,0-17.9
	c0-24.4-19.2-45.1-45.2-45.1c-0.4,0-36.8,0-37.2,0H8v167.5c0,4.9,0,36.3,0,48.2c0,25.1,20.2,45.3,45.3,45.3c13.2,0,46.4,0,54.7,0
	V423.1z"/>
<path id="o_00000153695203193536944820000008760095741514828956_" class="st0" d="M324.3-0.1L189-0.1l0,377.9
	c0,20.3,16.1,45.2,45.2,45.2h134.8l0.5-377.9C369.6,25.4,354.6-0.1,324.3-0.1z M359.1,305c0,22.4-18.5,45-45,45l-117,0
	c0,0,0-179.2,0-233.7c0-26.7,22.1-45.3,45.3-45.3h116.7C359.1,71,359.1,251.5,359.1,305z"/>
<path id="r_00000165946706340816602670000010950273261797363119_" class="st0" d="M472.8-0.1h-94.7l-0.5,423.1h180.6v-72h-9
	c-0.1,9.5,0,13.7,0,17.7c0,27.2-22.7,45.3-45.3,45.3H387.1v-26.7c0-24.1,19.5-45.3,45.4-45.3l126.2,0c0-6.3,0-15.3,0-31.2
	c0-46.5-37.7-85.9-85.9-85.9h-85.7v-9h171.1c0,0,0.6-121,0.5-130.2C558.7,39.6,522.2-0.1,472.8-0.1z M433.5,73.3
	c30.3,0,62.3,19.4,62.3,60.9C461.2,134.2,433.5,108.7,433.5,73.3z"/>
<path id="n_00000055669723917267225600000013299459614821705865_" class="st0" d="M747.2,44.8c0-25.9-21-44.9-45.1-44.9h-135v423.1
	h9V117.3c0-26.4,21.9-45.3,45.3-45.3l116.7,0V321c0,4.9,0,33,0,47.7c0,23.8-18.8,45.3-45.3,45.3c-13.2,0-43.4,0-51.1,0v9h105.4
	C747.2,423.1,747.2,117.3,747.2,44.8z"/>
</svg>
