<?xml version="1.0" encoding="UTF-8"?><svg id="Layer_1" xmlns="http://www.w3.org/2000/svg" viewBox="0 0 369.9 423"><path id="r" d="M369.9,89.71C369.5,0,280.19,0,280.19,0h-90.69l-.5,423h180.5v-72h-9c-.5,71.5-81,63-81,63h-81v-17.27c.5-53.73,81.85-53.73,81.85-53.73l89.55-1c0-117.5-90.05-117-90.05-117h-81.34v-9h171s.44-117.1.4-126.29ZM252.5,72s23.5-.5,38.5,14.5c15,15,15.5,39.5,15.5,39.5,0,0-24.5,3.5-39.5-12.5-15.48-16.51-14.5-41.5-14.5-41.5Z" style="stroke-width:0px;"/><path d="M0,0v10.06c0,59.06,47.88,106.94,106.94,106.94h10.16c29.77,0,53.9,24.13,53.9,53.9v243.1c-4.97,0-9-4.03-9-9v-123.1c0-31.42-25.47-56.9-56.9-56.9H0v198h180V0H0ZM171,108h-63C53.32,108,9,63.68,9,9h0s63,0,63,0c54.68,0,99,44.32,99,99h0Z" style="stroke-width:0px;"/></svg>