<?xml version="1.0" encoding="utf-8"?>
<!-- Generator: Adobe Illustrator 28.2.0, SVG Export Plug-In . SVG Version: 6.00 Build 0)  -->
<svg version="1.1" id="logo_marquee" xmlns="http://www.w3.org/2000/svg" xmlns:xlink="http://www.w3.org/1999/xlink" x="0px" y="0px"
	 viewBox="0 0 1881.9 423" style="enable-background:new 0 0 1881.9 423;" xml:space="preserve">
<g id="f">
	<path d="M675.2,423h-108V0h180v72h-9c0,0,0-63-81.7-63.5c-90.8-0.6-81.2,63-81.2,63V144h172v72H738c-0.5-62.5-63.8-62.5-80.8-63.1
		c-0.4,0-0.9,0.1-1.3,0.1h-80.7v198c0,0,0.5,63.5,100,63.5V423L675.2,423z"/>
</g>
<g id="o">
	<path d="M846.2,0h-90v351c0,0-0.5,72,90,72h90l0.5-350.5C936.7,72.5,936.2,0,846.2,0z M926.2,305c-0.5,53.5-45,45-45,45h-117
		c0,0,0.5-170.5,0-225s54-54,54-54h108C926.2,71,926.7,251.5,926.2,305z"/>
</g>
<g id="r">
	<path d="M1125.6,89.7C1125.2,0,1035.8,0,1035.8,0h-90.7l-0.5,423h180.5v-72h-9c-0.5,71.5-81,63-81,63h-81v-17.3
		C954.6,343,1036,343,1036,343l89.6-1c0-117.5-90.1-117-90.1-117h-81.3v-9h171C1125.2,216,1125.6,98.9,1125.6,89.7L1125.6,89.7
		L1125.6,89.7z M1008.2,72c0,0,23.5-0.5,38.5,14.5s15.5,39.5,15.5,39.5s-24.5,3.5-39.5-12.5C1007.2,97,1008.2,72,1008.2,72z"/>
</g>
<g id="n">
	<path d="M1314.2,72c-0.5-72.5-90-72-90-72h-90v423h9V125.8c0-17.2,6-29,14.8-37.1c9.8-10.4,27.9-16.7,43.3-16.7h103.9v279
		c0,62.5-81,63-81,63v9h90C1314.2,423,1314.7,144.5,1314.2,72z"/>
</g>
<g>
	<path d="M0,0v423h180V0H0z M90,414c-44.7,0-81-36.3-81-81s36.3-81,81-81s81,36.3,81,81S134.7,414,90,414z M171,180
		c0,0,0.1,63.5-80.9,63.8c-59,0.2-81.1,50-81.1,50V76.7C9,39.3,39.3,9,76.7,9H171V180z"/>
</g>
<g>
	<path d="M378.1,0h180v423h-180v-99h9v41c0,27.1,21.9,49,49,49h41V198h-5.4c-16.9,0-30.6,13.7-30.6,30.6V405h-4.8
		c-22.2,0-40.2-18-40.2-40.2V189H503c25.5,0,46.1-20.6,46.1-46.1V9l-111,0.1c-17,0-25.8,20.2-14.3,32.7l102.8,112.1l0,0
		c-1.4,2.7-3.6,5-6.2,6.4l-0.5,0.3L417.7,48.8c-10.8-11.8-30.6-4.2-30.6,11.9V315h-9V0L378.1,0z"/>
</g>
<g>
	<path d="M189,0h180v216H242c-24.3,0-44,19.7-44,44v46h171v9H246.5c-26.8,0-48.5,21.7-48.5,48.5V414h123c21.5,0,39-17.4,39-39v-51h9
		v99H189V207h130.5c22.3,0,40.5-18.1,40.5-40.4V9H243.2c-25,0-45.2,20.2-45.2,45.2v90.3c0,24.6,19.9,44.5,44.5,44.5H288v9h-99V0z"/>
</g>
<g>
	<path d="M1701.9,0v10.1c0,59.1,47.9,106.9,106.9,106.9h10.2c29.8,0,53.9,24.1,53.9,53.9V414c-5,0-9-4-9-9V281.9
		c0-31.4-25.5-56.9-56.9-56.9h-105.1v198h180V0H1701.9L1701.9,0z M1872.9,108h-63c-54.7,0-99-44.3-99-99h63
		C1828.6,9,1872.9,53.3,1872.9,108L1872.9,108z"/>
</g>
<g>
	<path d="M1513.3,0v423h180V0H1513.3z M1684.3,264.5c0,82.6-66.9,149.5-149.5,149.5h-12.5V155c0-80.6,65.4-146,146-146h16V264.5z"/>
</g>
<g>
	<path d="M1323.2,0v423h180V0H1323.2z M1494.2,414h-162c0,0,0-90,63-153c40.8-40.8,99-54,99-54V414z M1424.6,226
		c-69.9,37.7-92.5,125-92.5,125V9h81v163.1c0,20.2-9.5,39.3-25.6,51.6l-14.5,11l0.6,21c0,0,7.7-10.1,23.3-21.9
		c14.2-10.8,25.2-16.8,25.2-16.8V9h72v99C1494.2,108,1503.9,183.2,1424.6,226L1424.6,226L1424.6,226z"/>
</g>
</svg>
