<?xml version="1.0" encoding="UTF-8"?><svg id="Layer_2" xmlns="http://www.w3.org/2000/svg" viewBox="0 0 180 423"><g id="totem:_primality"><path d="M0,0h180v423H0v-99h9v41c0,27.06,21.94,49,49,49h41v-216h-5.35c-16.93,0-30.65,13.72-30.65,30.65v176.35h-4.78c-22.22,0-40.22-18.01-40.22-40.22v-175.77h106.92c25.45,0,46.08-20.63,46.08-46.08V9l-110.98.07c-16.95.01-25.8,20.16-14.34,32.65l102.82,112.05h0c-1.4,2.72-3.58,4.96-6.25,6.44l-.5.28L39.57,48.82c-10.84-11.84-30.57-4.18-30.57,11.88v254.31H0V0Z" style="stroke-width:0px;"/></g></svg>